<mxfile host="app.diagrams.net" agent="Mozilla/5.0 (Windows NT 10.0; Win64; x64; rv:138.0) Gecko/20100101 Firefox/138.0" version="27.1.0">
  <diagram name="第 1 页" id="b2PWP5_Q4X0Mw90g2AlI">
    <mxGraphModel dx="3095" dy="973" grid="1" gridSize="10" guides="1" tooltips="1" connect="1" arrows="1" fold="1" page="1" pageScale="1" pageWidth="1200" pageHeight="1920" math="0" shadow="0">
      <root>
        <mxCell id="0" />
        <mxCell id="1" parent="0" />
        <mxCell id="Slzx8whJ3Y6lu1s_nNLa-3" style="edgeStyle=orthogonalEdgeStyle;rounded=0;orthogonalLoop=1;jettySize=auto;html=1;exitX=0.5;exitY=1;exitDx=0;exitDy=0;entryX=0.5;entryY=0;entryDx=0;entryDy=0;" edge="1" parent="1" source="Slzx8whJ3Y6lu1s_nNLa-1" target="Slzx8whJ3Y6lu1s_nNLa-2">
          <mxGeometry relative="1" as="geometry" />
        </mxCell>
        <mxCell id="Slzx8whJ3Y6lu1s_nNLa-1" value="开始" style="rounded=1;whiteSpace=wrap;html=1;" vertex="1" parent="1">
          <mxGeometry x="386" y="55" width="120" height="50" as="geometry" />
        </mxCell>
        <mxCell id="Slzx8whJ3Y6lu1s_nNLa-45" style="edgeStyle=orthogonalEdgeStyle;rounded=0;orthogonalLoop=1;jettySize=auto;html=1;exitX=0.5;exitY=1;exitDx=0;exitDy=0;entryX=0.5;entryY=0;entryDx=0;entryDy=0;" edge="1" parent="1" source="Slzx8whJ3Y6lu1s_nNLa-2" target="Slzx8whJ3Y6lu1s_nNLa-4">
          <mxGeometry relative="1" as="geometry">
            <Array as="points">
              <mxPoint x="446" y="250" />
              <mxPoint x="-5" y="250" />
            </Array>
          </mxGeometry>
        </mxCell>
        <mxCell id="Slzx8whJ3Y6lu1s_nNLa-46" style="edgeStyle=orthogonalEdgeStyle;rounded=0;orthogonalLoop=1;jettySize=auto;html=1;exitX=0.5;exitY=1;exitDx=0;exitDy=0;entryX=0.5;entryY=0;entryDx=0;entryDy=0;" edge="1" parent="1" source="Slzx8whJ3Y6lu1s_nNLa-2" target="Slzx8whJ3Y6lu1s_nNLa-6">
          <mxGeometry relative="1" as="geometry">
            <Array as="points">
              <mxPoint x="446" y="250" />
              <mxPoint x="285" y="250" />
            </Array>
          </mxGeometry>
        </mxCell>
        <mxCell id="Slzx8whJ3Y6lu1s_nNLa-47" style="edgeStyle=orthogonalEdgeStyle;rounded=0;orthogonalLoop=1;jettySize=auto;html=1;exitX=0.5;exitY=1;exitDx=0;exitDy=0;entryX=0.5;entryY=0;entryDx=0;entryDy=0;" edge="1" parent="1" source="Slzx8whJ3Y6lu1s_nNLa-2" target="Slzx8whJ3Y6lu1s_nNLa-5">
          <mxGeometry relative="1" as="geometry" />
        </mxCell>
        <mxCell id="Slzx8whJ3Y6lu1s_nNLa-48" style="edgeStyle=orthogonalEdgeStyle;rounded=0;orthogonalLoop=1;jettySize=auto;html=1;exitX=0.5;exitY=1;exitDx=0;exitDy=0;entryX=0.5;entryY=0;entryDx=0;entryDy=0;" edge="1" parent="1" source="Slzx8whJ3Y6lu1s_nNLa-2" target="Slzx8whJ3Y6lu1s_nNLa-7">
          <mxGeometry relative="1" as="geometry">
            <Array as="points">
              <mxPoint x="446" y="250" />
              <mxPoint x="643" y="250" />
            </Array>
          </mxGeometry>
        </mxCell>
        <mxCell id="Slzx8whJ3Y6lu1s_nNLa-49" style="edgeStyle=orthogonalEdgeStyle;rounded=0;orthogonalLoop=1;jettySize=auto;html=1;exitX=0.5;exitY=1;exitDx=0;exitDy=0;entryX=0.5;entryY=0;entryDx=0;entryDy=0;" edge="1" parent="1" source="Slzx8whJ3Y6lu1s_nNLa-2" target="Slzx8whJ3Y6lu1s_nNLa-8">
          <mxGeometry relative="1" as="geometry" />
        </mxCell>
        <mxCell id="Slzx8whJ3Y6lu1s_nNLa-2" value="用户访问酒店预订界面，进行查询条件选择" style="rounded=1;whiteSpace=wrap;html=1;" vertex="1" parent="1">
          <mxGeometry x="381" y="148" width="130" height="50" as="geometry" />
        </mxCell>
        <mxCell id="Slzx8whJ3Y6lu1s_nNLa-13" style="edgeStyle=orthogonalEdgeStyle;rounded=0;orthogonalLoop=1;jettySize=auto;html=1;exitX=0.5;exitY=1;exitDx=0;exitDy=0;entryX=0.5;entryY=0;entryDx=0;entryDy=0;" edge="1" parent="1" source="Slzx8whJ3Y6lu1s_nNLa-4" target="Slzx8whJ3Y6lu1s_nNLa-10">
          <mxGeometry relative="1" as="geometry" />
        </mxCell>
        <mxCell id="Slzx8whJ3Y6lu1s_nNLa-4" value="输入目的地" style="rounded=1;whiteSpace=wrap;html=1;" vertex="1" parent="1">
          <mxGeometry x="-70" y="310" width="130" height="50" as="geometry" />
        </mxCell>
        <mxCell id="Slzx8whJ3Y6lu1s_nNLa-27" style="edgeStyle=orthogonalEdgeStyle;rounded=0;orthogonalLoop=1;jettySize=auto;html=1;exitX=0.5;exitY=1;exitDx=0;exitDy=0;entryX=0.5;entryY=0;entryDx=0;entryDy=0;" edge="1" parent="1" source="Slzx8whJ3Y6lu1s_nNLa-5" target="Slzx8whJ3Y6lu1s_nNLa-26">
          <mxGeometry relative="1" as="geometry" />
        </mxCell>
        <mxCell id="Slzx8whJ3Y6lu1s_nNLa-5" value="输入入住时间" style="rounded=1;whiteSpace=wrap;html=1;" vertex="1" parent="1">
          <mxGeometry x="380" y="300" width="130" height="50" as="geometry" />
        </mxCell>
        <mxCell id="Slzx8whJ3Y6lu1s_nNLa-12" style="edgeStyle=orthogonalEdgeStyle;rounded=0;orthogonalLoop=1;jettySize=auto;html=1;exitX=0.5;exitY=1;exitDx=0;exitDy=0;entryX=0.5;entryY=0;entryDx=0;entryDy=0;" edge="1" parent="1" source="Slzx8whJ3Y6lu1s_nNLa-6" target="Slzx8whJ3Y6lu1s_nNLa-11">
          <mxGeometry relative="1" as="geometry" />
        </mxCell>
        <mxCell id="Slzx8whJ3Y6lu1s_nNLa-6" value="关键词" style="rounded=1;whiteSpace=wrap;html=1;" vertex="1" parent="1">
          <mxGeometry x="220" y="300" width="130" height="50" as="geometry" />
        </mxCell>
        <mxCell id="Slzx8whJ3Y6lu1s_nNLa-35" style="edgeStyle=orthogonalEdgeStyle;rounded=0;orthogonalLoop=1;jettySize=auto;html=1;exitX=0.5;exitY=1;exitDx=0;exitDy=0;entryX=0.5;entryY=0;entryDx=0;entryDy=0;" edge="1" parent="1" source="Slzx8whJ3Y6lu1s_nNLa-7" target="Slzx8whJ3Y6lu1s_nNLa-32">
          <mxGeometry relative="1" as="geometry" />
        </mxCell>
        <mxCell id="Slzx8whJ3Y6lu1s_nNLa-7" value="输入退房时间" style="rounded=1;whiteSpace=wrap;html=1;" vertex="1" parent="1">
          <mxGeometry x="578" y="290" width="130" height="50" as="geometry" />
        </mxCell>
        <mxCell id="Slzx8whJ3Y6lu1s_nNLa-42" style="edgeStyle=orthogonalEdgeStyle;rounded=0;orthogonalLoop=1;jettySize=auto;html=1;exitX=0.5;exitY=1;exitDx=0;exitDy=0;entryX=0.5;entryY=0;entryDx=0;entryDy=0;" edge="1" parent="1" source="Slzx8whJ3Y6lu1s_nNLa-8" target="Slzx8whJ3Y6lu1s_nNLa-36">
          <mxGeometry relative="1" as="geometry" />
        </mxCell>
        <mxCell id="Slzx8whJ3Y6lu1s_nNLa-8" value="酒店级别" style="rounded=1;whiteSpace=wrap;html=1;" vertex="1" parent="1">
          <mxGeometry x="803" y="300" width="130" height="50" as="geometry" />
        </mxCell>
        <mxCell id="Slzx8whJ3Y6lu1s_nNLa-24" style="edgeStyle=orthogonalEdgeStyle;rounded=0;orthogonalLoop=1;jettySize=auto;html=1;exitX=0.5;exitY=1;exitDx=0;exitDy=0;entryX=0.5;entryY=0;entryDx=0;entryDy=0;" edge="1" parent="1" source="Slzx8whJ3Y6lu1s_nNLa-10" target="Slzx8whJ3Y6lu1s_nNLa-21">
          <mxGeometry relative="1" as="geometry" />
        </mxCell>
        <mxCell id="Slzx8whJ3Y6lu1s_nNLa-63" value="N" style="edgeLabel;html=1;align=center;verticalAlign=middle;resizable=0;points=[];" vertex="1" connectable="0" parent="Slzx8whJ3Y6lu1s_nNLa-24">
          <mxGeometry x="-0.8621" y="2" relative="1" as="geometry">
            <mxPoint as="offset" />
          </mxGeometry>
        </mxCell>
        <mxCell id="Slzx8whJ3Y6lu1s_nNLa-10" value="&lt;div&gt;判断目的地是否&lt;/div&gt;&lt;div&gt;包含特殊字符&lt;/div&gt;" style="rhombus;whiteSpace=wrap;html=1;" vertex="1" parent="1">
          <mxGeometry x="-82.5" y="420" width="155" height="80" as="geometry" />
        </mxCell>
        <mxCell id="Slzx8whJ3Y6lu1s_nNLa-23" style="edgeStyle=orthogonalEdgeStyle;rounded=0;orthogonalLoop=1;jettySize=auto;html=1;exitX=0.5;exitY=1;exitDx=0;exitDy=0;" edge="1" parent="1" source="Slzx8whJ3Y6lu1s_nNLa-11" target="Slzx8whJ3Y6lu1s_nNLa-21">
          <mxGeometry relative="1" as="geometry" />
        </mxCell>
        <mxCell id="Slzx8whJ3Y6lu1s_nNLa-64" value="N" style="edgeLabel;html=1;align=center;verticalAlign=middle;resizable=0;points=[];" vertex="1" connectable="0" parent="Slzx8whJ3Y6lu1s_nNLa-23">
          <mxGeometry x="-0.7454" relative="1" as="geometry">
            <mxPoint as="offset" />
          </mxGeometry>
        </mxCell>
        <mxCell id="Slzx8whJ3Y6lu1s_nNLa-25" style="edgeStyle=orthogonalEdgeStyle;rounded=0;orthogonalLoop=1;jettySize=auto;html=1;exitX=0;exitY=0.5;exitDx=0;exitDy=0;entryX=0.5;entryY=0;entryDx=0;entryDy=0;" edge="1" parent="1" source="Slzx8whJ3Y6lu1s_nNLa-11" target="Slzx8whJ3Y6lu1s_nNLa-14">
          <mxGeometry relative="1" as="geometry" />
        </mxCell>
        <mxCell id="Slzx8whJ3Y6lu1s_nNLa-62" value="Y" style="edgeLabel;html=1;align=center;verticalAlign=middle;resizable=0;points=[];" vertex="1" connectable="0" parent="Slzx8whJ3Y6lu1s_nNLa-25">
          <mxGeometry x="-0.4" y="-1" relative="1" as="geometry">
            <mxPoint x="1" as="offset" />
          </mxGeometry>
        </mxCell>
        <mxCell id="Slzx8whJ3Y6lu1s_nNLa-11" value="&lt;div&gt;判断关键词是否&lt;/div&gt;&lt;div&gt;包含特殊字符&lt;/div&gt;" style="rhombus;whiteSpace=wrap;html=1;" vertex="1" parent="1">
          <mxGeometry x="207.5" y="420" width="155" height="80" as="geometry" />
        </mxCell>
        <mxCell id="Slzx8whJ3Y6lu1s_nNLa-14" value="提示用户请勿输入特殊字符" style="rounded=1;whiteSpace=wrap;html=1;" vertex="1" parent="1">
          <mxGeometry x="77.5" y="520" width="130" height="50" as="geometry" />
        </mxCell>
        <mxCell id="Slzx8whJ3Y6lu1s_nNLa-15" style="edgeStyle=orthogonalEdgeStyle;rounded=0;orthogonalLoop=1;jettySize=auto;html=1;exitX=1;exitY=0.5;exitDx=0;exitDy=0;entryX=0.5;entryY=0;entryDx=0;entryDy=0;" edge="1" parent="1" source="Slzx8whJ3Y6lu1s_nNLa-10" target="Slzx8whJ3Y6lu1s_nNLa-14">
          <mxGeometry relative="1" as="geometry" />
        </mxCell>
        <mxCell id="Slzx8whJ3Y6lu1s_nNLa-19" value="Y" style="edgeLabel;html=1;align=center;verticalAlign=middle;resizable=0;points=[];" vertex="1" connectable="0" parent="Slzx8whJ3Y6lu1s_nNLa-15">
          <mxGeometry x="-0.5192" y="1" relative="1" as="geometry">
            <mxPoint as="offset" />
          </mxGeometry>
        </mxCell>
        <mxCell id="Slzx8whJ3Y6lu1s_nNLa-57" style="edgeStyle=orthogonalEdgeStyle;rounded=0;orthogonalLoop=1;jettySize=auto;html=1;exitX=0.5;exitY=1;exitDx=0;exitDy=0;entryX=0.5;entryY=0;entryDx=0;entryDy=0;" edge="1" parent="1" source="Slzx8whJ3Y6lu1s_nNLa-21" target="Slzx8whJ3Y6lu1s_nNLa-52">
          <mxGeometry relative="1" as="geometry" />
        </mxCell>
        <mxCell id="Slzx8whJ3Y6lu1s_nNLa-21" value="进行酒店检索" style="rounded=1;whiteSpace=wrap;html=1;" vertex="1" parent="1">
          <mxGeometry x="371" y="716" width="150" height="50" as="geometry" />
        </mxCell>
        <mxCell id="Slzx8whJ3Y6lu1s_nNLa-31" style="edgeStyle=orthogonalEdgeStyle;rounded=0;orthogonalLoop=1;jettySize=auto;html=1;exitX=0.5;exitY=1;exitDx=0;exitDy=0;entryX=0.5;entryY=0;entryDx=0;entryDy=0;" edge="1" parent="1" source="Slzx8whJ3Y6lu1s_nNLa-26" target="Slzx8whJ3Y6lu1s_nNLa-21">
          <mxGeometry relative="1" as="geometry" />
        </mxCell>
        <mxCell id="Slzx8whJ3Y6lu1s_nNLa-65" value="Y" style="edgeLabel;html=1;align=center;verticalAlign=middle;resizable=0;points=[];" vertex="1" connectable="0" parent="Slzx8whJ3Y6lu1s_nNLa-31">
          <mxGeometry x="-0.6406" relative="1" as="geometry">
            <mxPoint as="offset" />
          </mxGeometry>
        </mxCell>
        <mxCell id="Slzx8whJ3Y6lu1s_nNLa-40" style="edgeStyle=orthogonalEdgeStyle;rounded=0;orthogonalLoop=1;jettySize=auto;html=1;exitX=1;exitY=0.5;exitDx=0;exitDy=0;entryX=0.5;entryY=0;entryDx=0;entryDy=0;" edge="1" parent="1" source="Slzx8whJ3Y6lu1s_nNLa-26" target="Slzx8whJ3Y6lu1s_nNLa-28">
          <mxGeometry relative="1" as="geometry" />
        </mxCell>
        <mxCell id="Slzx8whJ3Y6lu1s_nNLa-66" value="N" style="edgeLabel;html=1;align=center;verticalAlign=middle;resizable=0;points=[];" vertex="1" connectable="0" parent="Slzx8whJ3Y6lu1s_nNLa-40">
          <mxGeometry x="0.0564" y="3" relative="1" as="geometry">
            <mxPoint y="1" as="offset" />
          </mxGeometry>
        </mxCell>
        <mxCell id="Slzx8whJ3Y6lu1s_nNLa-26" value="&lt;div&gt;判断入住时间是否&lt;/div&gt;&lt;div&gt;晚于当前时间&lt;/div&gt;" style="rhombus;whiteSpace=wrap;html=1;" vertex="1" parent="1">
          <mxGeometry x="367.5" y="420" width="155" height="80" as="geometry" />
        </mxCell>
        <mxCell id="Slzx8whJ3Y6lu1s_nNLa-28" value="&lt;div&gt;提示用户入住时间不能&lt;/div&gt;&lt;div&gt;早于当前时间&lt;/div&gt;" style="rounded=1;whiteSpace=wrap;html=1;" vertex="1" parent="1">
          <mxGeometry x="510" y="530" width="80" height="50" as="geometry" />
        </mxCell>
        <mxCell id="Slzx8whJ3Y6lu1s_nNLa-37" style="edgeStyle=orthogonalEdgeStyle;rounded=0;orthogonalLoop=1;jettySize=auto;html=1;exitX=0.5;exitY=1;exitDx=0;exitDy=0;entryX=0.5;entryY=0;entryDx=0;entryDy=0;" edge="1" parent="1" source="Slzx8whJ3Y6lu1s_nNLa-32" target="Slzx8whJ3Y6lu1s_nNLa-21">
          <mxGeometry relative="1" as="geometry" />
        </mxCell>
        <mxCell id="Slzx8whJ3Y6lu1s_nNLa-68" value="Y" style="edgeLabel;html=1;align=center;verticalAlign=middle;resizable=0;points=[];" vertex="1" connectable="0" parent="Slzx8whJ3Y6lu1s_nNLa-37">
          <mxGeometry x="-0.7964" y="3" relative="1" as="geometry">
            <mxPoint as="offset" />
          </mxGeometry>
        </mxCell>
        <mxCell id="Slzx8whJ3Y6lu1s_nNLa-41" style="edgeStyle=orthogonalEdgeStyle;rounded=0;orthogonalLoop=1;jettySize=auto;html=1;exitX=1;exitY=0.5;exitDx=0;exitDy=0;entryX=0.5;entryY=0;entryDx=0;entryDy=0;" edge="1" parent="1" source="Slzx8whJ3Y6lu1s_nNLa-32" target="Slzx8whJ3Y6lu1s_nNLa-33">
          <mxGeometry relative="1" as="geometry" />
        </mxCell>
        <mxCell id="Slzx8whJ3Y6lu1s_nNLa-67" value="N" style="edgeLabel;html=1;align=center;verticalAlign=middle;resizable=0;points=[];" vertex="1" connectable="0" parent="Slzx8whJ3Y6lu1s_nNLa-41">
          <mxGeometry x="0.1778" relative="1" as="geometry">
            <mxPoint as="offset" />
          </mxGeometry>
        </mxCell>
        <mxCell id="Slzx8whJ3Y6lu1s_nNLa-32" value="&lt;div&gt;判断退房时间是否&lt;/div&gt;&lt;div&gt;晚于入住时间&lt;/div&gt;" style="rhombus;whiteSpace=wrap;html=1;" vertex="1" parent="1">
          <mxGeometry x="565" y="420" width="155" height="80" as="geometry" />
        </mxCell>
        <mxCell id="Slzx8whJ3Y6lu1s_nNLa-33" value="&lt;div&gt;提示用户退房时间不能&lt;/div&gt;&lt;div&gt;早于入住时间&lt;/div&gt;" style="rounded=1;whiteSpace=wrap;html=1;" vertex="1" parent="1">
          <mxGeometry x="700" y="530" width="80" height="50" as="geometry" />
        </mxCell>
        <mxCell id="Slzx8whJ3Y6lu1s_nNLa-43" style="edgeStyle=orthogonalEdgeStyle;rounded=0;orthogonalLoop=1;jettySize=auto;html=1;exitX=0.5;exitY=1;exitDx=0;exitDy=0;entryX=0.5;entryY=0;entryDx=0;entryDy=0;" edge="1" parent="1">
          <mxGeometry relative="1" as="geometry">
            <mxPoint x="868" y="483" as="sourcePoint" />
            <mxPoint x="446" y="714" as="targetPoint" />
            <Array as="points">
              <mxPoint x="868" y="608" />
              <mxPoint x="446" y="608" />
            </Array>
          </mxGeometry>
        </mxCell>
        <mxCell id="Slzx8whJ3Y6lu1s_nNLa-36" value="选择酒店级别" style="rounded=1;whiteSpace=wrap;html=1;" vertex="1" parent="1">
          <mxGeometry x="803" y="435" width="130" height="50" as="geometry" />
        </mxCell>
        <mxCell id="Slzx8whJ3Y6lu1s_nNLa-55" style="edgeStyle=orthogonalEdgeStyle;rounded=0;orthogonalLoop=1;jettySize=auto;html=1;exitX=0.5;exitY=1;exitDx=0;exitDy=0;entryX=0.5;entryY=0;entryDx=0;entryDy=0;" edge="1" parent="1" source="Slzx8whJ3Y6lu1s_nNLa-52" target="Slzx8whJ3Y6lu1s_nNLa-53">
          <mxGeometry relative="1" as="geometry" />
        </mxCell>
        <mxCell id="Slzx8whJ3Y6lu1s_nNLa-60" value="Y" style="edgeLabel;html=1;align=center;verticalAlign=middle;resizable=0;points=[];" vertex="1" connectable="0" parent="Slzx8whJ3Y6lu1s_nNLa-55">
          <mxGeometry x="-0.0123" y="-1" relative="1" as="geometry">
            <mxPoint as="offset" />
          </mxGeometry>
        </mxCell>
        <mxCell id="Slzx8whJ3Y6lu1s_nNLa-59" style="edgeStyle=orthogonalEdgeStyle;rounded=0;orthogonalLoop=1;jettySize=auto;html=1;exitX=1;exitY=0.5;exitDx=0;exitDy=0;entryX=1;entryY=0.5;entryDx=0;entryDy=0;" edge="1" parent="1" source="Slzx8whJ3Y6lu1s_nNLa-52" target="Slzx8whJ3Y6lu1s_nNLa-54">
          <mxGeometry relative="1" as="geometry" />
        </mxCell>
        <mxCell id="Slzx8whJ3Y6lu1s_nNLa-61" value="N" style="edgeLabel;html=1;align=center;verticalAlign=middle;resizable=0;points=[];" vertex="1" connectable="0" parent="Slzx8whJ3Y6lu1s_nNLa-59">
          <mxGeometry x="-0.1377" relative="1" as="geometry">
            <mxPoint as="offset" />
          </mxGeometry>
        </mxCell>
        <mxCell id="Slzx8whJ3Y6lu1s_nNLa-52" value="是否存在酒店信息" style="rhombus;whiteSpace=wrap;html=1;" vertex="1" parent="1">
          <mxGeometry x="373" y="820" width="146" height="80" as="geometry" />
        </mxCell>
        <mxCell id="Slzx8whJ3Y6lu1s_nNLa-56" style="edgeStyle=orthogonalEdgeStyle;rounded=0;orthogonalLoop=1;jettySize=auto;html=1;exitX=0.5;exitY=1;exitDx=0;exitDy=0;" edge="1" parent="1" source="Slzx8whJ3Y6lu1s_nNLa-53" target="Slzx8whJ3Y6lu1s_nNLa-54">
          <mxGeometry relative="1" as="geometry" />
        </mxCell>
        <mxCell id="Slzx8whJ3Y6lu1s_nNLa-53" value="进行酒店预定" style="rounded=1;whiteSpace=wrap;html=1;" vertex="1" parent="1">
          <mxGeometry x="371" y="960" width="150" height="50" as="geometry" />
        </mxCell>
        <mxCell id="Slzx8whJ3Y6lu1s_nNLa-54" value="结束" style="rounded=1;whiteSpace=wrap;html=1;" vertex="1" parent="1">
          <mxGeometry x="370.5" y="1080" width="150" height="50" as="geometry" />
        </mxCell>
      </root>
    </mxGraphModel>
  </diagram>
</mxfile>
